<svg width="800" height="980" viewBox="0 0 800 980" fill="none" xmlns="http://www.w3.org/2000/svg">
  <rect width="800" height="980" fill="#EFE7DC"/>
  <rect x="86" y="72" width="628" height="836" fill="#FBF7F1"/>
  <path d="M400 260C476.216 260 538 198.216 538 122C538 45.7847 476.216 -16 400 -16C323.784 -16 262 45.7847 262 122C262 198.216 323.784 260 400 260Z" transform="translate(0 148)" fill="#DEC7B1"/>
  <path d="M225 866C225 667.18 386.18 506 585 506H603C801.82 506 963 667.18 963 866V980H225V866Z" fill="#E4D8C8"/>
  <path d="M136 824C136 622.971 298.971 460 500 460C701.029 460 864 622.971 864 824V980H136V824Z" fill="#FFFFFF"/>
  <path d="M305 296C351.535 241.953 392.791 220 452.499 220C510.414 220 551.681 244.44 592 298.5C579.746 190.913 523.676 136 450.5 136C376.179 136 319.665 190.486 305 296Z" fill="#221F1A"/>
  <line x1="202" y1="675.5" x2="602" y2="675.5" stroke="#D0C2B3"/>
  <line x1="170" y1="728.5" x2="634" y2="728.5" stroke="#D0C2B3"/>
  <line x1="140" y1="781.5" x2="664" y2="781.5" stroke="#D0C2B3"/>
</svg>
