<svg width="800" height="980" viewBox="0 0 800 980" fill="none" xmlns="http://www.w3.org/2000/svg">
  <rect width="800" height="980" fill="#E8E0D4"/>
  <rect x="78" y="68" width="644" height="844" fill="#FBF8F3"/>
  <rect x="126" y="118" width="548" height="744" fill="#D8C8B6"/>
  <path d="M400 455C478.977 455 543 390.977 543 312C543 233.023 478.977 169 400 169C321.023 169 257 233.023 257 312C257 390.977 321.023 455 400 455Z" fill="#1C1A18"/>
  <path d="M303 304C340.193 254.055 373.817 236 420.5 236C468.675 236 503.538 253.077 537 303C525.652 205.452 478.344 154 419 154C358.563 154 311.899 203.456 303 304Z" fill="#B09173"/>
  <path d="M259 584C259 547.549 288.549 518 325 518H475C511.451 518 541 547.549 541 584V980H259V584Z" fill="#F5EEE6"/>
  <path d="M220 630C220 568.144 270.144 518 332 518H468C529.856 518 580 568.144 580 630V980H220V630Z" fill="#262321"/>
  <line x1="216" y1="719.5" x2="584" y2="719.5" stroke="#D2C2B1"/>
  <line x1="216" y1="764.5" x2="584" y2="764.5" stroke="#D2C2B1"/>
  <line x1="216" y1="809.5" x2="584" y2="809.5" stroke="#D2C2B1"/>
</svg>
