<svg width="900" height="1200" viewBox="0 0 900 1200" fill="none" xmlns="http://www.w3.org/2000/svg">
  <rect width="900" height="1200" fill="#EDE6DD"/>
  <rect x="95" y="88" width="710" height="1024" rx="12" fill="#D4C5B2"/>
  <path d="M620 247C620 363.532 544.112 458 450.5 458C356.888 458 281 363.532 281 247C281 130.468 356.888 36 450.5 36C544.112 36 620 130.468 620 247Z" transform="translate(0 150)" fill="#211E1A"/>
  <path d="M309 761C309 622.965 420.965 511 559 511H578C716.035 511 828 622.965 828 761V1112H309V761Z" fill="#211E1A"/>
  <path d="M116 764C116 621.511 231.511 506 374 506H430C572.489 506 688 621.511 688 764V1112H116V764Z" fill="#F5F0E8"/>
  <path d="M394 486C467.454 486 527 426.454 527 353C527 279.546 467.454 220 394 220C320.546 220 261 279.546 261 353C261 426.454 320.546 486 394 486Z" fill="#F0D9C1"/>
  <path d="M299 388C333.75 324.328 363.081 297.827 416.5 297.827C465.702 297.827 495.634 322.554 539 390.5C525.139 281.498 475.006 226.997 395.5 226.997C317.315 226.997 269.5 286.582 299 388Z" fill="#171411"/>
  <path d="M280 563C280 532.072 305.072 507 336 507H500C530.928 507 556 532.072 556 563V1112H280V563Z" fill="#DCCAB5"/>
  <line x1="151" y1="1040.5" x2="754" y2="1040.5" stroke="#8C7A65"/>
  <line x1="151" y1="1004.5" x2="754" y2="1004.5" stroke="#8C7A65"/>
  <line x1="151" y1="968.5" x2="754" y2="968.5" stroke="#8C7A65"/>
</svg>
