<svg width="800" height="980" viewBox="0 0 800 980" fill="none" xmlns="http://www.w3.org/2000/svg">
  <rect width="800" height="980" fill="#E6DED1"/>
  <rect x="66" y="78" width="668" height="824" fill="#D7C6B0"/>
  <rect x="122" y="128" width="556" height="724" fill="#F8F2E9"/>
  <path d="M400 470C480.634 470 546 404.634 546 324C546 243.366 480.634 178 400 178C319.366 178 254 243.366 254 324C254 404.634 319.366 470 400 470Z" fill="#171513"/>
  <path d="M274 814C274 650.519 406.519 518 570 518H584C747.481 518 880 650.519 880 814V982H274V814Z" fill="#171513"/>
  <path d="M154 787C154 637.331 275.331 516 425 516C574.669 516 696 637.331 696 787V980H154V787Z" fill="#EEE3D6"/>
  <path d="M311 524L399 416L481 524V980H311V524Z" fill="#CBB8A1"/>
  <line x1="178" y1="682.5" x2="620" y2="682.5" stroke="#B49F86"/>
  <line x1="178" y1="726.5" x2="620" y2="726.5" stroke="#B49F86"/>
  <line x1="178" y1="770.5" x2="620" y2="770.5" stroke="#B49F86"/>
</svg>
